<?xml version="1.0" standalone="no"?>
<!DOCTYPE svg PUBLIC "-//W3C//DTD SVG 20010904//EN"
 "http://www.w3.org/TR/2001/REC-SVG-20010904/DTD/svg10.dtd">
<svg version="1.0" xmlns="http://www.w3.org/2000/svg"
 width="300.000000pt" height="329.000000pt" viewBox="0 0 650.000000 329.000000"
 preserveAspectRatio="xMidYMid meet">
<metadata>
Created by potrace 1.16, written by Peter Selinger 2001-2019
</metadata>
<g transform="translate(0.000000,329.000000) scale(0.100000,-0.100000)"
fill="#000000" stroke="none">
<path d="M679 3274 c-10 -13 -10 -17 2 -25 18 -11 26 -11 50 2 16 8 26 5 54
-18 18 -15 34 -35 34 -44 1 -15 34 -33 55 -30 5 1 6 -12 3 -29 -5 -22 -3 -32
8 -36 8 -4 15 -15 15 -25 0 -20 16 -24 38 -11 8 6 12 25 10 52 -3 38 0 45 27
61 39 23 55 23 71 2 16 -23 49 -6 49 25 0 12 4 24 8 28 4 4 7 16 7 26 0 10 5
18 10 18 6 0 10 5 10 10 0 6 -80 10 -219 10 -187 0 -220 -2 -232 -16z"/>
<path d="M1890 3260 c-6 -11 -18 -20 -26 -20 -25 0 -10 -25 17 -28 42 -6 46
-22 6 -22 -25 0 -45 -7 -60 -21 -12 -12 -17 -19 -11 -16 7 4 11 -6 12 -26 0
-17 6 -33 11 -35 6 -2 11 -11 12 -20 0 -14 2 -13 10 3 7 15 8 8 5 -27 -2 -26
0 -46 4 -43 7 4 4 -134 -4 -191 -2 -17 3 -20 30 -21 32 -1 32 0 36 50 2 36 -2
62 -15 85 -10 18 -14 38 -11 44 4 7 3 8 -4 4 -7 -4 -12 -2 -12 3 0 6 9 11 19
11 17 0 19 9 23 78 2 46 10 91 20 111 17 32 17 33 -2 38 -27 7 -25 19 3 27 22
6 22 7 3 21 -27 21 -53 19 -66 -5z"/>
<path d="M2000 3121 c-16 -4 -26 -15 -29 -31 -3 -23 -4 -24 -11 -5 -5 12 -7 0
-6 -34 1 -37 6 -56 15 -59 8 -3 11 0 7 6 -4 6 2 8 15 5 11 -3 25 -16 31 -28
10 -22 12 -22 46 -8 20 8 43 24 50 35 8 10 25 23 38 28 17 7 24 17 24 35 0 15
-4 24 -9 21 -5 -3 -12 1 -15 10 -4 10 -13 13 -26 9 -13 -4 -22 -1 -26 9 -6 17
-57 20 -104 7z"/>
<path d="M2493 3093 c-15 -3 -23 -12 -23 -24 0 -10 -4 -19 -10 -19 -5 0 -10
-19 -10 -42 0 -24 -7 -65 -15 -93 -9 -27 -13 -55 -11 -62 7 -18 -4 -44 -15
-37 -5 3 -8 2 -7 -3 1 -4 -3 -18 -9 -29 -11 -19 -9 -23 22 -40 19 -10 36 -16
39 -14 2 3 5 41 7 85 1 44 7 86 12 92 5 7 6 21 3 30 -4 10 -4 14 0 10 4 -4 23
26 43 66 19 39 40 76 46 80 10 9 -5 5 -42 -10 -11 -4 -14 -3 -9 5 4 7 6 11 4
11 -2 -1 -13 -4 -25 -6z"/>
<path d="M2652 3064 c-10 -11 -9 -19 5 -40 l17 -26 -32 7 c-18 4 -32 3 -31 -2
1 -4 0 -12 -1 -18 -1 -5 -3 -23 -4 -40 -3 -54 -28 -141 -47 -166 -16 -20 -18
-21 -13 -4 5 19 5 19 -6 2 -8 -12 -8 -22 -2 -30 6 -7 11 -15 11 -19 1 -5 3 -8
6 -8 3 0 9 0 14 0 6 0 18 26 28 58 9 31 20 59 23 62 3 3 5 11 6 18 2 29 5 33
14 27 6 -3 10 -2 10 4 0 6 13 25 28 43 16 18 36 47 44 65 15 30 15 32 -6 50
-32 28 -49 32 -64 17z"/>
<path d="M970 2999 c0 -5 -4 -8 -9 -4 -10 5 -41 -48 -41 -70 0 -18 -38 -48
-53 -42 -13 5 -21 -6 -45 -55 -1 -4 4 -5 12 -2 9 4 16 1 16 -6 0 -8 9 -10 25
-6 29 7 32 0 9 -25 -14 -16 -9 -20 69 -63 47 -25 90 -46 95 -46 14 0 121 -113
138 -145 8 -15 14 -34 14 -41 0 -8 4 -14 8 -14 12 0 88 67 82 72 -3 3 -33 25
-66 51 -110 83 -175 173 -187 259 -6 45 -27 88 -44 88 -12 0 -18 18 -14 48 1
6 -1 12 -4 12 -3 0 -5 -5 -5 -11z"/>
<path d="M5503 2972 c-13 -2 -31 -14 -42 -28 -10 -13 -24 -24 -30 -24 -13 0
-32 -33 -48 -85 -18 -56 -17 -58 22 -105 19 -23 35 -46 35 -52 0 -16 24 -33
50 -36 72 -7 156 2 172 20 58 63 62 71 69 126 5 45 2 65 -12 93 -20 39 -61 72
-81 64 -7 -3 -35 3 -63 13 -27 9 -60 16 -72 14z"/>
<path d="M5035 2896 c-44 -66 -18 -148 50 -159 20 -3 46 -2 58 2 25 10 58 43
61 63 1 7 4 18 8 23 3 6 2 20 -2 31 -24 61 -143 89 -175 40z"/>
<path d="M2942 2553 c-12 -2 -20 -9 -17 -14 4 -5 -2 -12 -12 -16 -10 -4 -22
-11 -26 -17 -5 -6 -6 2 -3 19 5 22 4 26 -4 15 -5 -8 -10 -26 -10 -39 0 -21 3
-23 36 -17 38 8 47 2 120 -74 27 -28 36 -32 43 -21 10 15 8 43 -3 78 -6 19 -4
22 9 16 15 -5 15 -3 4 14 -6 11 -19 18 -28 16 -9 -2 -27 7 -40 21 -14 14 -29
25 -35 25 -6 -1 -21 -4 -34 -6z"/>
<path d="M1118 2501 c-13 -10 -43 -23 -68 -30 l-45 -12 0 -74 c0 -41 3 -76 6
-79 3 -4 14 4 25 16 10 12 13 18 7 14 -8 -4 -13 -1 -13 7 0 9 7 13 18 11 11
-3 38 17 80 60 52 52 62 68 54 82 -13 24 -37 26 -64 5z"/>
<path d="M2160 2499 c0 -5 -4 -8 -9 -5 -4 3 -6 -5 -4 -17 2 -12 -5 -33 -16
-47 -17 -21 -22 -23 -46 -12 -14 7 -30 10 -35 7 -4 -3 -11 2 -14 11 -5 12 -15
14 -45 9 -33 -5 -41 -3 -57 17 -11 13 -18 22 -17 19 5 -10 -27 -30 -41 -25
-13 5 -14 2 -5 -25 6 -17 17 -31 25 -31 8 0 14 -9 14 -21 0 -15 -4 -19 -16
-15 -9 3 -18 6 -20 6 -3 0 -9 11 -14 25 -8 22 -16 25 -57 25 -25 0 -62 5 -80
12 -29 11 -39 9 -80 -12 -30 -14 -66 -23 -95 -23 -32 0 -48 -4 -48 -13 0 -7 6
-15 13 -17 6 -3 -5 -6 -26 -6 -26 -1 -36 3 -31 11 4 7 3 8 -4 4 -6 -4 -9 -13
-6 -20 3 -8 1 -17 -5 -21 -6 -3 -11 -1 -11 4 0 6 -4 11 -10 11 -16 0 -11 -17
6 -24 10 -4 25 1 35 10 11 10 19 12 19 7 0 -6 -15 -21 -34 -33 -23 -17 -32
-29 -28 -42 4 -16 10 -18 36 -12 17 3 35 13 39 20 4 8 12 14 17 14 17 0 11
-20 -14 -43 l-23 -22 50 0 c50 0 51 1 58 33 4 18 9 35 12 38 8 9 35 -49 30
-63 -3 -7 0 -13 6 -13 6 0 20 -9 31 -20 17 -17 20 -33 20 -120 0 -55 4 -100 9
-100 12 0 38 25 44 42 2 7 8 10 12 5 16 -14 -9 -62 -32 -62 -35 0 -38 -13 -10
-39 34 -31 34 -60 1 -92 -19 -20 -31 -24 -50 -20 -14 4 -32 2 -39 -4 -9 -8
-15 -8 -20 0 -8 12 -25 13 -25 1 0 -5 12 -14 28 -19 21 -8 23 -11 7 -11 -11 0
-26 3 -33 8 -8 5 -29 3 -50 -5 -20 -7 -49 -13 -64 -14 -36 0 -121 -61 -148
-106 -12 -19 -33 -37 -46 -40 -26 -7 -35 -48 -11 -57 6 -3 2 -6 -10 -6 -34 -1
-38 -21 -4 -21 31 0 49 -14 32 -24 -5 -4 -12 -2 -16 4 -4 6 -11 8 -16 4 -5 -3
-35 -7 -65 -9 -31 -2 -58 -6 -61 -9 -11 -11 20 -36 43 -36 13 0 24 -4 24 -9 0
-12 119 -41 138 -33 10 3 6 -7 -11 -30 -16 -21 -35 -34 -47 -33 -21 1 -41 15
-21 15 6 0 21 9 32 19 21 19 21 19 -25 26 -26 4 -49 5 -53 2 -3 -3 9 -36 27
-72 32 -65 32 -66 53 -48 11 10 17 12 13 6 -5 -9 -1 -13 11 -14 10 0 13 -3 6
-6 -7 -2 -13 -9 -13 -14 0 -6 5 -7 10 -4 6 3 10 0 10 -8 0 -8 28 -44 63 -81
48 -51 69 -66 92 -67 21 -1 24 -3 10 -6 -11 -3 -23 -10 -27 -16 -5 -9 -24 8
-85 81 -10 11 -30 24 -44 27 -24 6 -26 4 -26 -20 0 -15 -11 -37 -23 -48 -19
-19 -22 -19 -16 -4 3 10 -1 34 -9 54 -12 29 -13 38 -3 44 8 5 4 11 -13 18 -16
6 -36 29 -54 63 -15 29 -34 60 -42 68 -8 8 -20 24 -27 34 -21 30 -42 14 -44
-35 -2 -32 -9 -49 -25 -61 -21 -16 -21 -17 -1 -12 27 7 47 -35 38 -81 -4 -22
0 -43 12 -66 10 -19 17 -40 16 -46 -2 -7 2 -13 7 -13 6 0 7 -15 4 -34 -6 -41
20 -81 70 -108 21 -11 26 -17 15 -18 -10 0 -18 -4 -18 -10 0 -5 -7 -10 -16
-10 -13 0 -14 -3 -4 -15 7 -8 10 -24 7 -35 -4 -18 -2 -20 16 -14 19 6 18 3 -8
-26 -16 -17 -42 -39 -57 -48 -15 -8 -29 -25 -32 -36 -4 -13 -9 -17 -13 -10 -6
7 -31 6 -86 -4 l-78 -14 33 -30 c18 -16 47 -36 65 -44 18 -7 37 -22 42 -31 8
-14 10 -15 11 -3 0 37 79 109 185 169 35 20 37 20 18 3 -13 -11 -23 -23 -23
-26 0 -7 99 -56 115 -56 22 0 28 20 12 38 -9 9 -19 30 -23 46 l-7 29 22 -19
c12 -10 35 -31 51 -46 15 -16 36 -28 45 -28 17 0 56 -18 65 -30 5 -6 170 -88
220 -109 l25 -10 -25 3 c-14 2 -38 10 -55 16 -66 26 -84 29 -78 13 5 -13 -3
-11 -35 7 -23 13 -42 27 -42 32 0 4 -4 8 -10 8 -19 0 -10 -19 30 -56 22 -21
47 -53 56 -72 9 -19 25 -37 35 -39 10 -3 16 -9 13 -14 -3 -5 7 -14 21 -19 32
-12 35 -12 35 -1 0 5 -10 12 -22 14 -13 2 -5 4 17 4 44 1 114 -14 80 -16 -16
-1 -20 -8 -21 -36 -1 -38 7 -43 26 -20 7 8 17 15 23 15 5 0 3 -8 -6 -18 -10
-10 -17 -25 -17 -33 0 -8 -9 -21 -20 -29 -11 -8 -20 -18 -20 -23 0 -5 13 2 29
15 16 13 26 29 23 38 -6 16 -4 15 18 -13 11 -15 11 -18 0 -15 -9 2 -20 -15
-31 -47 -10 -27 -18 -42 -18 -32 -1 23 -21 22 -21 -2 0 -20 25 -51 41 -51 5 0
9 -5 9 -10 0 -7 -6 -7 -19 0 -18 9 -19 8 -10 -22 14 -49 12 -71 -6 -64 -11 4
-15 0 -13 -12 2 -10 -3 -16 -10 -14 -8 1 -11 -2 -8 -7 3 -5 -5 -16 -17 -24
-13 -8 -24 -22 -24 -31 0 -13 13 -16 72 -16 42 0 76 5 83 12 7 7 12 40 12 79
l0 67 38 -9 c51 -12 119 -11 143 1 34 19 98 108 92 129 -3 12 -11 17 -19 14
-10 -3 -12 0 -8 10 7 19 -10 52 -50 95 -28 30 -35 33 -70 27 -42 -6 -136 -52
-136 -67 0 -4 -7 -8 -16 -8 -22 0 -12 23 17 37 75 39 117 53 153 53 41 -1 76
-18 76 -37 0 -6 14 -27 30 -48 23 -29 30 -33 30 -19 0 32 -64 114 -88 114 -5
0 -15 7 -22 15 -18 22 -41 19 -91 -14 -62 -40 -89 -48 -89 -24 0 11 5 24 12
31 9 9 9 12 0 13 -7 1 -18 2 -24 3 -7 1 -12 10 -10 21 2 17 -6 23 -43 33 -25
7 -60 12 -78 12 -24 0 -28 3 -17 10 38 25 148 -4 158 -42 3 -14 7 -16 12 -8 5
9 10 6 15 -9 11 -35 23 -24 40 35 17 60 12 114 -11 114 -8 0 -14 5 -14 10 0 6
-8 5 -21 -2 -17 -11 -22 -10 -35 6 -8 11 -14 25 -14 32 0 12 -31 24 -67 24
-12 0 -24 4 -27 8 -6 10 81 8 91 -1 3 -4 12 -2 20 5 7 6 16 8 20 4 3 -3 1 -6
-5 -6 -17 0 -15 -30 3 -36 8 -4 12 -11 8 -18 -4 -7 -2 -7 8 1 12 10 18 10 27
1 9 -9 12 -4 12 21 0 49 16 29 24 -30 5 -39 12 -52 26 -56 11 -3 20 -10 20
-15 0 -5 7 -3 15 6 8 8 15 21 15 29 0 8 10 17 23 21 32 8 39 7 32 -4 -3 -5
-15 -10 -27 -10 -18 0 -19 -4 -14 -48 3 -26 6 -57 6 -69 0 -19 22 -41 40 -41
3 0 17 -6 32 -13 19 -8 35 -9 50 -2 16 7 31 5 56 -7 53 -26 101 -6 51 20 -11
6 -33 8 -50 5 -22 -5 -29 -3 -29 8 0 8 -7 20 -15 27 -13 11 -20 11 -39 0 -17
-9 -29 -9 -42 -2 -17 9 -16 11 11 17 17 4 38 9 47 11 29 8 88 -7 88 -23 0 -8
14 -19 30 -24 17 -6 30 -15 30 -19 0 -4 11 -3 23 3 32 15 30 37 -2 37 -26 0
-26 1 5 16 69 34 102 90 47 79 -23 -5 -25 -4 -11 5 10 6 24 10 30 9 22 -4 70
20 63 31 -3 6 1 13 10 16 28 11 25 -1 -8 -41 -17 -22 -26 -36 -20 -32 7 4 25
10 40 12 103 16 199 68 186 100 -3 8 -1 15 3 16 26 2 54 10 84 24 l35 16 -40
-5 c-23 -3 -57 -1 -78 5 -20 5 -38 9 -40 7 -7 -6 -34 28 -60 75 -30 53 -34 90
-13 133 25 52 27 71 11 88 -9 9 -25 16 -35 16 -21 0 -60 37 -60 57 0 7 7 13
16 13 11 0 14 -5 10 -16 -5 -14 -4 -15 9 -4 9 7 13 20 10 28 -6 15 22 82 35
82 10 0 76 -73 82 -90 3 -9 15 -4 42 14 21 14 52 26 67 26 36 0 119 -28 141
-47 12 -11 21 -12 37 -4 11 6 26 11 33 11 7 -1 1 -8 -14 -16 -33 -17 -33 -17
-12 -49 13 -20 15 -38 9 -90 -4 -41 -3 -65 3 -65 23 0 97 68 106 95 12 43 26
72 25 55 -3 -37 0 -43 16 -30 9 7 14 19 11 27 -3 7 -1 13 4 13 6 0 10 8 10 18
0 13 2 14 9 4 5 -9 14 1 29 35 26 60 24 205 -3 232 -9 9 -15 12 -14 6 3 -14
-12 -68 -23 -82 -5 -7 -8 -31 -7 -53 3 -31 -1 -44 -14 -51 -20 -11 -23 1 -5
19 9 9 9 12 0 12 -23 0 -31 -35 -15 -67 11 -24 12 -36 3 -50 -10 -16 -10 -16
-5 3 6 25 -16 39 -34 21 -28 -28 -16 34 15 73 6 8 14 30 18 48 3 17 9 45 12
62 3 16 3 38 -1 47 -6 15 -9 13 -21 -12 -15 -34 -19 -19 -4 19 7 20 6 27 -7
34 -22 13 -55 3 -49 -14 3 -7 1 -16 -4 -19 -6 -4 -10 -19 -10 -35 0 -16 -5
-32 -12 -36 -12 -7 -7 30 8 70 6 16 4 18 -10 13 -14 -6 -16 -3 -11 13 4 13 2
20 -6 20 -7 0 -9 3 -6 7 4 3 2 12 -4 20 -9 9 -8 13 0 13 6 0 11 -5 11 -11 0
-5 5 -7 12 -3 6 4 8 3 4 -4 -3 -6 -1 -14 5 -18 7 -4 9 -3 5 4 -8 13 14 28 23
15 3 -5 16 -12 27 -15 17 -4 20 -2 17 13 -3 11 -13 19 -22 19 -13 0 -14 2 -2
9 11 7 9 10 -10 13 -13 2 -29 -3 -35 -11 -9 -11 -12 -12 -19 -1 -6 9 -4 11 5
5 9 -5 11 -4 6 4 -6 9 -13 8 -31 -3 -19 -13 -24 -13 -28 -2 -10 26 25 45 73
40 l45 -5 -27 25 c-16 14 -28 30 -28 35 0 6 -18 22 -40 36 -22 14 -40 30 -40
35 0 6 -6 10 -13 10 -15 0 -34 -33 -40 -70 -3 -16 -5 -11 -6 14 -1 31 5 47 27
69 15 17 21 27 14 23 -8 -5 -11 -1 -9 15 2 12 -5 40 -15 61 -22 45 -31 198
-12 198 6 0 14 -24 18 -54 3 -30 19 -78 34 -108 29 -55 39 -113 21 -124 -11
-7 7 -34 23 -34 6 0 24 -11 40 -25 23 -20 38 -24 58 -20 23 5 29 2 40 -24 l12
-31 18 23 c33 42 33 111 1 201 -5 14 1 27 22 46 26 23 28 28 13 33 -9 4 -15 3
-12 -2 3 -5 -1 -14 -9 -21 -13 -11 -14 -10 -9 5 6 14 4 16 -7 11 -8 -4 -3 1
10 12 21 17 67 33 220 75 53 15 63 33 25 47 -21 8 -35 7 -60 -5 -17 -8 -43
-15 -57 -15 -13 0 -42 -8 -63 -17 -22 -9 -42 -16 -46 -15 -4 1 -19 -3 -33 -8
-20 -7 -25 -6 -25 5 0 17 -9 19 -30 5 -19 -12 -30 5 -30 46 0 28 -10 45 -32
56 -4 1 -14 -6 -23 -17 -12 -14 -18 -16 -21 -7 -3 6 -12 12 -20 12 -9 0 -12 5
-8 13 4 6 -2 4 -13 -6 -21 -18 -22 -18 -37 5 -8 12 -14 32 -12 43 4 28 -14 64
-36 70 -10 4 -18 12 -18 18 0 7 -14 -2 -30 -20 -42 -44 -40 -67 3 -60 19 3 38
2 44 -1 14 -10 38 -56 24 -48 -6 4 -11 3 -11 -3 0 -7 -8 -7 -26 -1 -14 6 -29
8 -34 5 -4 -3 -22 10 -39 27 -28 29 -30 33 -14 40 10 3 14 7 9 7 -6 1 2 13 16
29 36 40 68 88 68 104 0 8 -16 19 -35 25 -19 6 -33 8 -30 4 2 -5 -7 -14 -20
-21 -13 -7 -22 -17 -19 -22 5 -7 -11 -12 -19 -5 -2 1 -12 -5 -22 -13 -11 -9
-16 -10 -11 -2 4 7 1 12 -8 12 -9 0 -16 -7 -16 -15 0 -23 -17 -18 -43 11 -29
33 -37 57 -26 75 7 11 9 9 9 -7 0 -23 36 -61 47 -51 3 4 -3 17 -15 30 -14 15
-22 36 -22 58 0 37 -8 52 -29 57 -8 2 -33 18 -56 37 -23 19 -45 32 -48 29 -3
-4 -12 5 -18 20 -8 17 -15 22 -20 15 -5 -9 -15 -6 -35 8 -31 20 -89 30 -97 16
-3 -5 8 -18 24 -28 16 -11 31 -26 34 -33 3 -8 -13 2 -36 22 -44 37 -74 38 -65
2 3 -11 8 -40 12 -64 6 -38 8 -40 20 -25 9 12 13 14 14 5 0 -7 5 -10 10 -7 6
3 10 -3 10 -14 0 -12 6 -22 13 -22 6 -1 17 -2 22 -3 18 -2 55 -46 58 -68 3
-32 -14 -31 -53 2 -19 16 -41 30 -47 30 -7 0 -13 5 -13 11 0 5 -4 7 -10 4 -5
-3 -10 -1 -10 4 0 6 -12 11 -27 11 l-26 0 21 -18 c30 -26 14 -51 -22 -34 -14
6 -26 16 -26 21 0 6 -7 8 -15 5 -8 -4 -15 -1 -15 5 0 7 -8 7 -26 1 -37 -14
-49 -13 -34 5 10 12 9 16 -3 21 -9 3 -18 12 -21 20 -4 11 2 9 20 -5 29 -23 80
-27 118 -10 25 12 39 41 26 56 -4 4 -15 34 -24 66 -15 53 -26 72 -26 46z m308
-569 c18 -11 36 -20 40 -20 4 0 0 4 -8 10 -8 5 -11 12 -7 17 12 11 25 -16 20
-38 -3 -11 0 -25 6 -32 27 -34 -19 -28 -57 7 -33 30 -114 24 -199 -14 -46 -21
-63 -25 -59 -15 3 8 1 15 -3 15 -17 0 -33 -135 -20 -162 5 -9 5 -27 1 -39 -8
-21 -9 -21 -14 -3 -2 10 -6 46 -7 79 -1 33 -7 62 -12 63 -6 3 -5 10 2 18 7 8
9 18 5 21 -19 19 -30 -44 -26 -151 1 -49 26 -103 54 -118 20 -10 20 -10 4 8
-11 13 -14 24 -8 34 7 12 12 12 28 -3 10 -9 21 -14 25 -11 3 3 18 -6 34 -20
23 -21 34 -25 63 -20 l35 6 -30 -22 -30 -22 45 7 c25 3 56 9 70 12 18 4 22 2
15 -5 -6 -6 -42 -17 -82 -24 -63 -10 -76 -10 -111 6 -21 10 -58 36 -80 58 -23
22 -42 35 -42 29 0 -7 -5 -9 -11 -5 -8 4 -8 8 -1 13 8 5 8 27 2 69 -11 77 0
154 27 190 48 66 260 105 331 62z m-674 -736 c8 -3 12 -12 9 -20 -4 -10 0 -12
11 -8 10 4 19 -2 27 -19 13 -28 6 -57 -12 -57 -6 0 -9 6 -6 14 3 8 1 17 -6 20
-9 3 -9 7 1 14 9 6 4 9 -17 9 -28 0 -29 -1 -13 -16 35 -33 102 -204 102 -262
0 -15 -6 -32 -14 -38 -11 -9 -13 -3 -10 34 2 28 0 44 -6 40 -6 -3 -10 -14 -10
-23 0 -12 -3 -13 -8 -5 -6 9 -16 8 -40 -7 -18 -11 -32 -16 -32 -11 0 5 16 16
36 26 24 11 34 21 30 32 -4 11 -2 13 9 9 8 -3 15 -1 15 4 0 6 -5 10 -11 10 -6
0 -8 7 -5 16 3 8 2 12 -4 9 -6 -3 -10 1 -10 9 0 9 -4 16 -10 16 -5 0 -10 7
-10 15 0 16 -1 16 -36 20 -12 1 -31 12 -43 24 -14 14 -30 21 -42 18 -10 -3
-17 -1 -13 4 8 14 -19 10 -40 -6 -23 -17 -40 -20 -31 -5 11 18 -10 11 -59 -21
-27 -16 -46 -32 -43 -35 3 -3 17 2 31 11 34 23 33 14 -4 -25 -27 -29 -35 -31
-31 -7 0 4 -4 7 -9 7 -20 0 -23 -32 -6 -67 9 -20 15 -37 13 -40 -6 -5 -32 37
-42 66 -4 12 -18 39 -31 58 -25 37 -30 53 -16 53 13 -1 42 -27 42 -39 0 -7 16
1 35 16 27 22 33 32 28 52 -4 17 -2 22 6 17 6 -4 9 -12 6 -17 -9 -14 0 -11 64
20 42 20 73 28 107 27 41 0 49 3 52 19 4 18 20 45 27 45 2 0 10 -3 19 -6z"/>
<path d="M2513 2477 c-4 -6 -1 -13 5 -15 7 -2 12 -17 12 -33 0 -17 4 -28 10
-24 5 3 18 -3 30 -15 11 -11 26 -20 34 -20 8 0 18 -5 22 -12 5 -8 1 -9 -12 -5
-12 5 -8 -2 10 -17 17 -14 33 -23 37 -20 4 2 11 -1 15 -7 4 -8 3 -9 -4 -5 -7
4 -12 2 -12 -3 0 -16 -24 -9 -32 9 -5 12 -7 12 -7 -2 -1 -10 -4 -18 -8 -18 -3
0 -15 8 -26 18 -20 17 -20 17 -3 -10 9 -14 28 -29 42 -32 28 -7 32 -23 7 -29
-14 -4 -14 -5 3 -6 15 -1 25 8 33 27 7 16 22 39 35 53 21 23 22 26 8 61 -18
45 -46 66 -130 94 -43 15 -64 19 -69 11z"/>
<path d="M5505 2440 c-3 -5 -14 -10 -23 -10 -26 0 -63 -60 -55 -90 8 -35 21
-49 64 -70 24 -13 48 -17 71 -14 29 5 37 13 56 54 27 59 27 59 -1 90 -35 40
-98 63 -112 40z"/>
<path d="M3500 2330 c0 -16 -5 -19 -24 -14 -19 4 -33 -5 -80 -60 -64 -72 -130
-120 -189 -138 -41 -12 -57 -32 -39 -50 7 -7 37 2 99 30 48 23 101 44 118 48
16 4 51 20 78 36 58 34 60 34 105 6 22 -13 32 -16 27 -7 -5 8 -10 19 -10 24
-2 23 -28 62 -48 70 -17 8 -22 18 -21 43 1 17 -3 32 -7 32 -5 0 -9 -9 -9 -20z"/>
<path d="M685 2266 c-13 -19 -13 -29 -4 -49 7 -15 17 -23 25 -20 8 3 14 0 14
-6 0 -6 26 -18 58 -26 93 -26 148 -47 172 -65 21 -16 21 -18 5 -34 -16 -16
-16 -17 9 -10 22 5 29 1 43 -25 11 -19 24 -29 33 -26 9 3 7 -1 -4 -10 -11 -8
-16 -18 -12 -22 12 -12 33 23 40 66 3 21 13 44 21 51 16 13 21 45 5 35 -5 -3
-8 7 -5 25 4 32 -1 36 -25 19 -11 -8 -12 -12 -2 -16 6 -2 12 -9 12 -14 0 -6
-7 -6 -19 0 -10 6 -21 8 -24 4 -4 -3 -26 -1 -49 5 -24 6 -69 17 -101 23 -37 8
-53 15 -45 21 9 5 5 8 -12 8 -16 0 -43 17 -72 45 l-48 44 -15 -23z"/>
<path d="M1494 2189 c-3 -6 -16 -8 -29 -5 -13 3 -41 -1 -64 -9 -23 -8 -41 -11
-41 -8 0 3 -11 -7 -25 -23 -13 -15 -22 -30 -19 -33 2 -3 -9 -18 -25 -35 -29
-30 -54 -105 -30 -91 8 5 9 0 4 -16 -4 -16 -3 -19 3 -11 7 10 22 0 63 -41 30
-30 65 -59 77 -66 36 -19 20 -24 -27 -7 l-41 14 35 -34 c33 -31 42 -34 95 -34
55 0 62 3 94 36 20 20 38 45 41 55 4 11 11 16 17 13 7 -4 8 -2 4 5 -4 6 -2 20
4 29 16 22 -29 -26 -55 -59 -22 -28 -65 -48 -65 -30 0 6 4 11 8 11 4 0 23 25
41 55 18 30 39 55 47 55 28 0 40 55 23 109 l-11 33 -18 -40 c-17 -38 -49 -60
-69 -47 -5 3 -12 1 -16 -5 -11 -18 -23 -11 -18 10 3 11 10 20 15 20 13 0 42
30 35 37 -3 3 3 21 13 41 22 40 17 51 -23 54 -15 1 -27 6 -27 11 0 4 14 6 30
3 17 -2 30 0 30 5 0 13 -67 11 -76 -2z"/>
<path d="M500 2093 c-15 -4 -73 -116 -85 -164 -8 -31 16 -55 42 -44 10 5 21 7
26 7 4 -1 7 3 7 9 0 6 7 8 17 5 10 -4 23 1 35 14 29 31 163 33 241 3 47 -18
49 -18 63 1 24 34 17 41 -37 39 -46 -2 -54 1 -92 36 -78 71 -166 109 -217 94z"/>
<path d="M6070 1960 c-16 -16 -30 -39 -30 -50 0 -22 61 -89 83 -91 6 -1 19 -2
27 -3 24 -2 66 31 80 63 15 37 2 64 -43 91 -46 28 -81 25 -117 -10z"/>
<path d="M1273 1858 c-4 -7 -17 -31 -28 -53 -12 -23 -28 -41 -40 -43 -25 -3
-59 -58 -42 -66 9 -3 8 -5 0 -5 -7 -1 -13 -9 -13 -20 0 -10 -7 -37 -15 -60
l-15 -42 37 -15 c43 -19 57 -7 48 42 -5 26 -2 32 12 30 12 -1 17 5 15 17 -2 9
1 17 6 17 11 0 110 98 123 122 9 16 5 25 -28 53 -43 38 -48 40 -60 23z"/>
<path d="M3401 1836 c-17 -18 -31 -37 -31 -44 0 -7 -7 -12 -15 -12 -8 0 -15
-9 -15 -19 0 -15 -10 -21 -41 -26 -36 -6 -40 -10 -37 -33 2 -15 8 -26 13 -26
6 1 30 5 54 9 28 5 41 4 37 -3 -6 -10 43 -32 72 -32 8 0 21 -8 28 -17 7 -10
14 -16 16 -13 2 3 13 19 25 36 20 29 21 34 7 73 -8 23 -12 53 -10 66 5 28 -26
69 -54 71 -10 1 -33 -13 -49 -30z"/>
<path d="M4292 1762 c-45 -4 -86 -31 -115 -73 -26 -38 -40 -79 -27 -79 4 0 10
-13 13 -30 4 -16 16 -38 27 -47 11 -10 20 -25 20 -35 0 -11 13 -21 38 -27 51
-15 78 -14 113 4 16 9 34 13 38 10 10 -6 46 63 61 116 8 28 6 39 -15 71 -14
21 -29 38 -34 38 -5 0 -16 6 -23 13 -29 27 -65 42 -96 39z"/>
<path d="M3707 1659 c-19 -21 -22 -33 -7 -24 6 3 10 2 10 -4 0 -5 -4 -13 -10
-16 -5 -3 -10 -1 -10 5 0 24 -25 2 -26 -23 -1 -31 -21 -51 -54 -54 -70 -6
-103 -4 -109 6 -4 6 -17 8 -33 3 l-26 -7 21 -26 c26 -31 97 -48 97 -23 0 8 7
14 15 14 8 0 15 -5 15 -11 0 -6 7 -9 15 -5 9 3 20 -2 27 -13 6 -11 17 -17 24
-14 7 2 15 -11 21 -34 5 -21 13 -36 17 -35 5 2 12 -2 16 -9 14 -22 22 95 10
140 -9 34 -9 46 0 51 7 4 10 14 8 21 -3 8 -1 22 4 33 7 13 7 16 -1 12 -6 -4
-11 -3 -11 3 0 5 5 11 12 13 8 3 8 7 2 11 -6 3 -18 -3 -27 -14z"/>
<path d="M728 1593 c-9 -10 -21 -28 -27 -40 -27 -52 -1 -179 46 -221 26 -24
60 -26 55 -4 -5 25 19 52 46 53 15 0 21 3 15 6 -20 8 -15 33 7 33 13 0 18 5
14 15 -4 10 -2 13 8 10 9 -4 18 5 25 22 8 24 11 25 18 11 4 -11 1 -23 -9 -33
-22 -23 -20 -48 5 -64 27 -16 41 1 29 35 -6 14 -5 26 0 29 6 4 10 20 10 36 0
17 -4 28 -9 24 -5 -3 -12 -1 -16 5 -3 5 0 10 7 10 8 1 4 8 -9 19 -15 12 -19
21 -12 28 6 6 7 13 2 16 -24 15 -103 4 -103 -14 0 -5 -7 -9 -16 -9 -13 0 -14
3 -4 15 17 21 -11 31 -41 15 -19 -11 -21 -10 -16 4 8 21 -6 20 -25 -1z"/>
<path d="M3360 1525 c-7 -9 -20 -13 -29 -10 -43 13 -123 -135 -107 -198 8 -33
45 -55 57 -36 5 8 9 10 9 5 0 -5 6 -4 13 1 6 6 24 13 38 17 29 6 39 29 39 86
0 40 51 107 72 94 7 -4 8 -3 4 5 -4 6 -11 9 -16 6 -5 -3 -17 6 -26 20 -19 29
-36 32 -54 10z"/>
<path d="M314 1408 c7 -98 9 -107 19 -101 8 5 0 -36 -9 -46 -8 -9 -23 12 -29
40 -10 45 -18 27 -10 -21 7 -41 8 -42 40 -36 28 6 35 3 40 -14 10 -30 22 -16
30 36 6 41 8 44 19 28 13 -17 14 -16 24 3 6 11 8 23 5 27 -3 3 -1 6 6 6 9 0
12 -9 9 -23 l-5 -24 86 28 c47 15 105 32 127 38 l42 11 -13 38 c-13 35 -15 37
-52 34 -21 -2 -44 -9 -51 -15 -10 -8 -16 -7 -21 1 -4 7 -31 13 -59 13 -29 1
-55 6 -58 10 -3 5 -14 9 -25 9 -13 0 -18 4 -13 13 5 8 4 9 -5 1 -16 -15 -24
-85 -12 -117 15 -38 -4 -35 -28 4 -10 17 -19 48 -19 70 -1 45 -7 59 -28 59
-13 0 -15 -12 -10 -72z"/>
<path d="M613 1319 l-62 -20 4 -37 c2 -20 4 -51 4 -69 1 -25 6 -33 32 -42 28
-9 30 -9 24 9 -7 23 10 27 19 5 7 -20 36 -8 36 15 0 19 22 42 36 38 5 -2 30 5
56 15 l48 19 -53 44 c-28 24 -59 43 -67 43 -8 0 -43 -9 -77 -20z"/>
<path d="M4922 1227 c-37 -38 -52 -97 -31 -116 8 -6 26 -22 41 -35 15 -13 46
-27 68 -31 40 -7 43 -5 85 40 l44 46 -30 58 c-25 48 -36 60 -61 65 -61 12 -83
7 -116 -27z"/>
<path d="M3410 1209 c0 -6 -7 -9 -15 -5 -8 3 -15 2 -15 -2 0 -4 -25 -8 -56 -8
-33 -1 -59 -6 -64 -14 -4 -7 -16 -9 -28 -6 -15 5 -24 1 -31 -13 -10 -17 -6
-21 35 -37 29 -11 43 -22 40 -30 -3 -7 -1 -16 3 -18 5 -3 11 -18 14 -33 9 -42
77 -107 77 -74 0 5 22 31 50 57 41 40 49 52 43 73 -3 14 -10 32 -15 38 -6 7
-7 25 -4 39 5 18 3 30 -6 35 -18 12 -28 11 -28 -2z"/>
<path d="M2728 1123 c-19 -5 -65 -74 -97 -145 -26 -57 -26 -57 -2 -55 11 0 19
5 18 10 -1 5 3 11 9 14 7 2 12 -11 12 -36 1 -38 0 -39 -29 -36 -20 3 -32 -1
-36 -10 -3 -8 -9 -15 -13 -15 -19 0 9 136 36 174 18 26 18 46 1 46 -16 0 -57
-82 -57 -114 0 -14 -6 -26 -12 -29 -10 -3 -10 -7 -1 -17 6 -7 9 -18 6 -25 -8
-22 14 -52 62 -84 37 -25 56 -31 98 -31 56 0 67 5 86 35 8 13 11 14 7 3 -4
-13 3 -11 32 8 46 31 56 57 40 100 -10 28 -9 36 5 52 20 22 25 108 5 96 -7 -5
-9 -2 -5 8 4 12 0 15 -19 13 -13 -1 -24 1 -24 4 0 8 -77 41 -93 40 -6 -1 -20
-3 -29 -6z"/>
<path d="M855 1050 c-176 -48 -281 -70 -357 -72 -47 -2 -84 0 -81 5 2 4 0 7
-6 7 -16 0 -29 -32 -26 -63 3 -29 25 -60 58 -85 9 -7 29 -37 43 -65 42 -83 46
-85 60 -30 7 26 13 57 14 69 0 31 20 46 37 29 12 -13 23 -8 76 29 34 25 73 53
87 64 14 10 43 22 65 26 54 10 115 45 108 62 -3 8 -12 14 -20 14 -8 0 -11 5
-8 10 7 12 -7 11 -50 0z"/>
<path d="M3010 960 c-12 -16 -30 -30 -41 -30 -34 0 -56 -18 -56 -45 0 -14 -8
-34 -17 -44 -15 -16 -12 -21 49 -79 62 -60 92 -81 64 -44 -13 15 -12 16 4 3
10 -8 16 -20 13 -27 -3 -7 -1 -16 4 -19 4 -3 10 0 12 7 3 8 9 8 24 0 17 -10
17 -11 2 -12 -10 0 -18 -5 -18 -11 0 -6 7 -8 16 -5 9 4 23 1 30 -5 11 -9 14
-9 14 0 0 7 5 9 10 6 6 -3 10 -1 10 5 0 7 -9 9 -22 5 -18 -5 -20 -4 -8 4 13 9
11 13 -10 27 -70 48 -189 195 -144 177 8 -3 14 -1 14 4 0 4 10 19 23 33 28 30
61 80 54 80 -3 0 -15 -13 -27 -30z"/>
<path d="M3107 928 c-10 -17 -16 -32 -15 -33 8 -8 164 -78 200 -91 54 -19 90
-42 83 -54 -3 -5 -1 -12 5 -15 8 -5 8 -11 0 -20 -8 -9 -8 -15 0 -20 5 -3 10
-15 10 -25 0 -10 6 -21 13 -23 9 -4 9 -8 -2 -15 -20 -14 -5 -30 28 -29 21 2
38 14 65 50 73 96 112 197 77 197 -6 0 -8 -7 -5 -15 5 -11 2 -14 -12 -8 -11 3
-22 11 -26 17 -4 6 -16 6 -34 -3 -17 -7 -29 -8 -33 -2 -3 5 -34 14 -68 20 -54
10 -199 62 -252 90 -13 7 -20 3 -34 -21z"/>
<path d="M4713 829 c-29 -14 -45 -30 -53 -52 -8 -24 -13 -28 -19 -18 -7 11
-11 10 -20 -7 -22 -41 -10 -159 19 -189 33 -34 57 -50 85 -57 15 -4 40 -20 56
-36 l29 -28 19 24 c10 13 28 24 38 24 20 0 58 31 81 66 16 24 17 28 32 92 10
44 10 56 -3 75 -23 35 -65 77 -76 77 -6 0 -22 10 -35 21 -35 31 -101 34 -153
8z"/>
<path d="M2840 755 c-7 -9 -27 -26 -44 -38 l-31 -22 18 28 c9 15 15 27 12 27
-9 0 -49 -22 -55 -30 -14 -18 -91 -82 -102 -84 -21 -5 -51 -16 -81 -31 -15 -8
-25 -10 -22 -5 9 15 -11 12 -24 -4 -7 -8 -20 -12 -29 -9 -25 6 -115 -46 -108
-63 3 -8 0 -14 -6 -14 -6 0 -9 -3 -5 -6 3 -3 29 2 58 11 56 19 142 27 133 13
-6 -9 10 -40 30 -60 40 -41 104 -149 110 -189 4 -24 13 -54 21 -66 11 -16 11
-23 3 -25 -9 -3 -8 -13 2 -39 8 -19 13 -38 11 -44 -20 -59 -27 -95 -20 -95 5
0 28 17 52 38 23 21 87 64 142 96 119 70 113 65 97 75 -13 8 -60 1 -118 -17
-17 -5 -37 -6 -45 -2 -16 11 -32 2 -23 -12 4 -6 2 -8 -3 -5 -6 4 -18 -4 -27
-18 -20 -31 -21 -41 -1 -25 9 7 18 11 21 8 2 -3 -6 -12 -19 -21 -26 -17 -55
-8 -42 13 6 9 4 11 -5 5 -9 -5 -11 -4 -6 4 4 6 11 9 16 6 4 -3 20 11 34 30 16
21 36 35 49 35 17 0 19 2 7 9 -8 6 -18 7 -22 5 -8 -5 -12 11 -9 30 3 14 -21
66 -28 62 -9 -6 -34 15 -54 46 -20 32 -22 42 -5 32 7 -5 -2 12 -20 36 -38 53
-43 107 -12 135 11 10 20 24 20 32 0 12 -3 12 -16 -1 -18 -18 -34 -21 -34 -6
0 6 7 10 15 10 8 0 15 5 15 10 0 6 7 10 15 10 8 0 15 6 15 13 0 8 9 22 21 33
21 19 21 18 -1 -18 -24 -41 -13 -50 22 -18 17 15 24 17 30 8 6 -10 8 -10 8 -1
0 7 14 35 31 63 30 49 36 77 9 45z"/>
<path d="M4083 721 c-46 -38 -52 -106 -15 -149 22 -25 49 -38 93 -46 30 -5 39
-2 63 23 17 18 30 44 33 70 5 36 2 44 -27 71 -18 16 -38 30 -46 30 -8 0 -14 5
-14 10 0 17 -64 10 -87 -9z"/>
<path d="M832 718 c-9 -9 -5 -15 16 -28 15 -9 40 -41 56 -71 18 -33 23 -49 13
-41 -9 8 -19 22 -22 31 -12 40 -95 52 -95 15 0 -8 -6 -14 -13 -12 -20 5 -19
-9 3 -58 11 -26 20 -52 20 -60 0 -14 55 -45 64 -36 3 3 -3 13 -14 22 -20 17
-19 17 25 16 43 -1 49 -6 46 -34 -1 -7 5 -15 13 -18 9 -3 14 -9 12 -13 -9 -14
9 -30 24 -21 13 8 12 10 -3 10 -10 0 -16 4 -12 9 3 5 0 13 -6 17 -8 5 -8 8 1
14 8 5 6 16 -9 41 -12 19 -21 41 -21 49 0 8 13 -5 29 -30 15 -25 35 -51 44
-58 13 -11 16 -9 22 16 8 41 -4 82 -32 112 -14 13 -31 36 -38 51 -8 14 -25 33
-39 43 -15 9 -36 23 -49 31 -18 11 -26 12 -35 3z"/>
<path d="M2856 661 c-33 -20 -33 -23 4 -45 37 -21 101 -101 120 -147 7 -19 22
-46 32 -60 15 -23 16 -28 3 -33 -17 -6 -20 -36 -4 -36 6 0 9 -6 6 -14 -4 -11
-1 -11 19 -2 13 6 24 15 24 19 0 5 4 6 9 2 6 -3 1 -25 -10 -51 -12 -25 -18
-48 -16 -51 12 -11 102 54 138 99 47 60 49 74 8 53 -17 -9 -42 -15 -57 -13
-34 4 -71 57 -65 92 4 19 -2 28 -24 43 -15 10 -36 27 -45 39 -10 12 -39 44
-66 71 -49 50 -50 50 -76 34z"/>
<path d="M5835 615 c-5 -2 -22 -6 -37 -9 -33 -8 -61 -60 -56 -108 2 -27 11
-38 51 -63 40 -26 47 -34 46 -60 -2 -55 1 -70 22 -94 16 -19 22 -22 29 -12 4
8 12 11 18 7 6 -3 13 -2 17 4 11 18 24 10 27 -17 3 -25 7 -28 41 -27 62 2 68
4 62 13 -3 6 1 13 8 18 22 13 38 50 29 71 -14 36 -58 78 -105 102 -47 24 -55
34 -37 45 13 8 13 85 0 85 -6 0 -23 9 -38 19 -29 21 -61 31 -77 26z"/>
<path d="M3275 599 c-4 -6 -14 -8 -22 -5 -17 7 -46 -7 -74 -35 -20 -20 -26
-45 -8 -33 7 4 9 -1 7 -12 -2 -11 -11 -18 -21 -18 -23 2 -21 -18 4 -47 l21
-24 -31 -9 c-17 -5 -31 -13 -31 -17 0 -13 14 -11 61 7 29 12 58 39 105 96 35
44 64 84 64 89 0 15 -32 10 -52 -8 -16 -14 -18 -14 -18 0 0 8 6 18 13 20 9 4
9 6 0 6 -6 1 -15 -4 -18 -10z"/>
<path d="M1327 517 c-13 -23 -32 -58 -41 -77 -9 -20 -49 -70 -89 -112 -54 -57
-82 -79 -111 -87 -26 -7 -44 -7 -51 -1 -8 7 -24 1 -49 -19 -22 -18 -32 -32
-26 -36 8 -5 8 -11 -1 -21 -9 -12 5 -22 82 -58 52 -24 107 -56 123 -70 35 -32
41 -32 60 -4 15 21 15 23 -9 36 -20 10 -24 18 -19 40 10 48 94 215 134 267 21
28 45 66 55 85 10 19 24 42 31 51 13 14 10 18 -25 31 l-40 16 -24 -41z"/>
<path d="M1431 486 c-10 -12 -10 -30 -1 -88 7 -40 18 -76 24 -80 36 -24 166
18 166 53 0 10 -6 20 -12 22 -10 4 -10 8 0 15 10 7 -3 19 -50 45 -53 31 -65
34 -74 22 -15 -20 -26 -19 -22 1 4 23 -16 28 -31 10z"/>
<path d="M1695 403 c-12 -12 -34 -80 -55 -173 -16 -70 -70 -140 -108 -141 -15
0 -36 -4 -46 -8 -19 -7 -18 -8 4 -24 13 -9 27 -14 32 -11 4 3 5 -2 2 -10 -5
-13 2 -16 37 -17 24 0 55 -2 69 -3 27 -3 86 46 75 63 -3 5 -1 12 5 16 5 3 10
13 10 21 0 8 -4 12 -10 9 -12 -7 -12 17 -1 67 6 24 5 40 -2 47 -14 14 19 151
40 167 11 10 9 12 -13 10 -15 0 -33 -6 -39 -13z"/>
<path d="M2233 413 c-7 -2 -13 -20 -13 -38 0 -18 -6 -35 -12 -37 -10 -4 -10
-11 1 -34 11 -23 15 -25 18 -11 8 32 21 8 33 -62 13 -71 6 -196 -11 -206 -25
-16 0 -23 91 -24 55 -1 100 0 100 3 0 2 -16 23 -35 46 -19 23 -39 58 -44 78
-10 43 -43 218 -46 247 -1 11 -8 19 -16 17 -21 -5 -60 8 -54 18 7 11 6 11 -12
3z"/>
<path d="M2335 400 c-7 -11 1 -80 17 -152 7 -36 15 -48 28 -48 32 0 70 19 76
37 3 10 13 32 22 49 13 27 13 36 2 63 -7 18 -18 30 -25 28 -6 -3 -22 4 -36 14
-26 20 -74 25 -84 9z"/>
<path d="M3552 384 c-21 -14 -52 -73 -52 -98 0 -6 17 -30 39 -54 43 -47 75
-53 136 -28 27 12 35 22 41 51 10 52 -9 107 -45 128 -36 21 -89 22 -119 1z"/>
<path d="M5935 170 c-3 -5 -19 -10 -34 -10 -16 0 -34 -7 -41 -15 -7 -8 -16
-15 -21 -15 -17 0 -54 -45 -51 -62 2 -10 -2 -18 -8 -18 -7 0 -10 -6 -7 -14 3
-8 1 -17 -6 -19 -37 -13 25 -17 239 -15 l239 3 -30 33 c-49 52 -55 61 -55 72
0 5 -10 10 -22 10 -12 0 -32 10 -45 22 -18 17 -35 22 -76 21 -28 -1 -57 3 -64
9 -7 6 -14 5 -18 -2z"/>
<path d="M5137 149 c-31 -18 -66 -84 -60 -110 4 -13 11 -27 17 -31 6 -4 54 -8
107 -8 l97 0 6 31 c14 71 -105 155 -167 118z"/>
</g>
</svg>
